<?xml version="1.0" encoding="utf-8" standalone="no"?>
<!DOCTYPE svg PUBLIC "-//W3C//DTD SVG 1.1//EN"
  "http://www.w3.org/Graphics/SVG/1.1/DTD/svg11.dtd">
<svg xmlns:xlink="http://www.w3.org/1999/xlink" width="460.8pt" height="345.6pt" viewBox="0 0 460.8 345.6" xmlns="http://www.w3.org/2000/svg" version="1.1">
 <metadata>
  <rdf:RDF xmlns:dc="http://purl.org/dc/elements/1.1/" xmlns:cc="http://creativecommons.org/ns#" xmlns:rdf="http://www.w3.org/1999/02/22-rdf-syntax-ns#">
   <cc:Work>
    <dc:type rdf:resource="http://purl.org/dc/dcmitype/StillImage"/>
    <dc:date>2023-02-23T20:23:20.383326</dc:date>
    <dc:format>image/svg+xml</dc:format>
    <dc:creator>
     <cc:Agent>
      <dc:title>Matplotlib v3.5.2, https://matplotlib.org/</dc:title>
     </cc:Agent>
    </dc:creator>
   </cc:Work>
  </rdf:RDF>
 </metadata>
 <defs>
  <style type="text/css">*{stroke-linejoin: round; stroke-linecap: butt}</style>
 </defs>
 <g id="figure_1">
  <g id="patch_1">
   <path d="M 0 345.6 
L 460.8 345.6 
L 460.8 0 
L 0 0 
z
" style="fill: #ffffff"/>
  </g>
  <g id="axes_1">
   <g id="patch_2">
    <path d="M 57.6 307.584 
L 414.72 307.584 
L 414.72 41.472 
L 57.6 41.472 
z
" style="fill: #ffffff"/>
   </g>
   <g id="PolyCollection_1">
    <defs>
     <path id="ma77d339d02" d="M 73.914256 -280.517922 
L 73.914256 -269.720036 
L 77.191952 -267.578884 
L 80.469649 -265.43725 
L 83.747345 -263.295112 
L 87.025042 -261.152449 
L 90.302739 -259.009235 
L 93.580435 -256.865448 
L 96.858132 -254.721059 
L 100.135829 -252.576041 
L 103.413525 -250.430366 
L 106.691222 -248.284003 
L 109.968918 -246.136919 
L 113.246615 -243.98908 
L 116.524312 -241.840451 
L 119.802008 -239.690994 
L 123.079705 -237.54067 
L 126.357401 -235.389436 
L 129.635098 -233.23725 
L 132.912795 -231.084066 
L 136.190491 -228.929835 
L 139.468188 -226.774508 
L 142.745885 -224.618032 
L 146.023581 -222.460351 
L 149.301278 -220.30141 
L 152.578974 -218.141147 
L 155.856671 -215.979501 
L 159.134368 -213.816408 
L 162.412064 -211.6518 
L 165.689761 -209.48561 
L 168.967458 -207.317767 
L 172.245154 -205.148198 
L 175.522851 -202.976828 
L 178.800547 -200.803583 
L 182.078244 -198.628386 
L 185.355941 -196.45116 
L 188.633637 -194.271828 
L 191.911334 -192.090313 
L 195.189031 -189.906539 
L 198.466727 -187.720431 
L 201.744424 -185.531918 
L 205.02212 -183.340929 
L 208.299817 -181.147399 
L 211.577514 -178.951265 
L 214.85521 -176.752471 
L 218.132907 -174.550964 
L 221.410604 -172.3467 
L 224.6883 -170.139639 
L 227.965997 -167.929752 
L 231.243693 -165.717013 
L 234.52139 -163.501409 
L 237.799087 -161.282931 
L 241.076783 -159.061582 
L 244.35448 -156.83737 
L 247.632177 -154.610315 
L 250.909873 -152.380442 
L 254.18757 -150.147784 
L 257.465266 -147.912383 
L 260.742963 -145.674286 
L 264.02066 -143.433546 
L 267.298356 -141.190223 
L 270.576053 -138.944379 
L 273.85375 -136.696082 
L 277.131446 -134.445402 
L 280.409143 -132.192413 
L 283.686839 -129.93719 
L 286.964536 -127.679809 
L 290.242233 -125.420347 
L 293.519929 -123.158882 
L 296.797626 -120.895489 
L 300.075323 -118.630246 
L 303.353019 -116.363227 
L 306.630716 -114.094505 
L 309.908412 -111.824154 
L 313.186109 -109.552242 
L 316.463806 -107.278839 
L 319.741502 -105.004009 
L 323.019199 -102.727817 
L 326.296896 -100.450323 
L 329.574592 -98.171587 
L 332.852289 -95.891666 
L 336.129985 -93.610612 
L 339.407682 -91.328479 
L 342.685379 -89.045315 
L 345.963075 -86.761168 
L 349.240772 -84.476083 
L 352.518469 -82.190103 
L 355.796165 -79.903268 
L 359.073862 -77.615618 
L 362.351558 -75.327189 
L 365.629255 -73.038017 
L 368.906952 -70.748136 
L 372.184648 -68.457576 
L 375.462345 -66.166368 
L 378.740042 -63.87454 
L 382.017738 -61.582121 
L 385.295435 -59.289135 
L 388.573131 -56.995607 
L 391.850828 -54.701561 
L 395.128525 -52.407018 
L 398.406221 -50.112 
L 398.406221 -60.960273 
L 398.406221 -60.960273 
L 395.128525 -63.101271 
L 391.850828 -65.242746 
L 388.573131 -67.384716 
L 385.295435 -69.527206 
L 382.017738 -71.670237 
L 378.740042 -73.813834 
L 375.462345 -75.958024 
L 372.184648 -78.102833 
L 368.906952 -80.24829 
L 365.629255 -82.394425 
L 362.351558 -84.541271 
L 359.073862 -86.688859 
L 355.796165 -88.837226 
L 352.518469 -90.986408 
L 349.240772 -93.136445 
L 345.963075 -95.287377 
L 342.685379 -97.439247 
L 339.407682 -99.5921 
L 336.129985 -101.745984 
L 332.852289 -103.900947 
L 329.574592 -106.057043 
L 326.296896 -108.214324 
L 323.019199 -110.372847 
L 319.741502 -112.532672 
L 316.463806 -114.693859 
L 313.186109 -116.856473 
L 309.908412 -119.020578 
L 306.630716 -121.186244 
L 303.353019 -123.35354 
L 300.075323 -125.522538 
L 296.797626 -127.693311 
L 293.519929 -129.865936 
L 290.242233 -132.040487 
L 286.964536 -134.217042 
L 283.686839 -136.395678 
L 280.409143 -138.576472 
L 277.131446 -140.7595 
L 273.85375 -142.944838 
L 270.576053 -145.132558 
L 267.298356 -147.322731 
L 264.02066 -149.515424 
L 260.742963 -151.710702 
L 257.465266 -153.908622 
L 254.18757 -156.109238 
L 250.909873 -158.312597 
L 247.632177 -160.518741 
L 244.35448 -162.727702 
L 241.076783 -164.939508 
L 237.799087 -167.154176 
L 234.52139 -169.371715 
L 231.243693 -171.592128 
L 227.965997 -173.815406 
L 224.6883 -176.041536 
L 221.410604 -178.270492 
L 218.132907 -180.502245 
L 214.85521 -182.736755 
L 211.577514 -184.973978 
L 208.299817 -187.213861 
L 205.02212 -189.456348 
L 201.744424 -191.701376 
L 198.466727 -193.94888 
L 195.189031 -196.198789 
L 191.911334 -198.451032 
L 188.633637 -200.705534 
L 185.355941 -202.962219 
L 182.078244 -205.22101 
L 178.800547 -207.48183 
L 175.522851 -209.744602 
L 172.245154 -212.00925 
L 168.967458 -214.275697 
L 165.689761 -216.543871 
L 162.412064 -218.813698 
L 159.134368 -221.085108 
L 155.856671 -223.358031 
L 152.578974 -225.632403 
L 149.301278 -227.908157 
L 146.023581 -230.185232 
L 142.745885 -232.463569 
L 139.468188 -234.743109 
L 136.190491 -237.023799 
L 132.912795 -239.305586 
L 129.635098 -241.588418 
L 126.357401 -243.872249 
L 123.079705 -246.157033 
L 119.802008 -248.442726 
L 116.524312 -250.729286 
L 113.246615 -253.016674 
L 109.968918 -255.304852 
L 106.691222 -257.593785 
L 103.413525 -259.883439 
L 100.135829 -262.173781 
L 96.858132 -264.46478 
L 93.580435 -266.756408 
L 90.302739 -269.048638 
L 87.025042 -271.341441 
L 83.747345 -273.634795 
L 80.469649 -275.928674 
L 77.191952 -278.223057 
L 73.914256 -280.517922 
z
"/>
    </defs>
    <g clip-path="url(#paceda032e6)">
     <use xlink:href="#ma77d339d02" x="0" y="345.6" style="fill: #ff0000; fill-opacity: 0.18"/>
    </g>
   </g>
   <g id="matplotlib.axis_1">
    <g id="xtick_1">
     <g id="line2d_1">
      <defs>
       <path id="mb5677977fc" d="M 0 0 
L 0 3.5 
" style="stroke: #000000; stroke-width: 0.8"/>
      </defs>
      <g>
       <use xlink:href="#mb5677977fc" x="73.342127" y="307.584" style="stroke: #000000; stroke-width: 0.8"/>
      </g>
     </g>
     <g id="text_1">
      <!-- 10 -->
      <g transform="translate(66.979627 322.182437)scale(0.1 -0.1)">
       <defs>
        <path id="DejaVuSans-31" d="M 794 531 
L 1825 531 
L 1825 4091 
L 703 3866 
L 703 4441 
L 1819 4666 
L 2450 4666 
L 2450 531 
L 3481 531 
L 3481 0 
L 794 0 
L 794 531 
z
" transform="scale(0.015625)"/>
        <path id="DejaVuSans-30" d="M 2034 4250 
Q 1547 4250 1301 3770 
Q 1056 3291 1056 2328 
Q 1056 1369 1301 889 
Q 1547 409 2034 409 
Q 2525 409 2770 889 
Q 3016 1369 3016 2328 
Q 3016 3291 2770 3770 
Q 2525 4250 2034 4250 
z
M 2034 4750 
Q 2819 4750 3233 4129 
Q 3647 3509 3647 2328 
Q 3647 1150 3233 529 
Q 2819 -91 2034 -91 
Q 1250 -91 836 529 
Q 422 1150 422 2328 
Q 422 3509 836 4129 
Q 1250 4750 2034 4750 
z
" transform="scale(0.015625)"/>
       </defs>
       <use xlink:href="#DejaVuSans-31"/>
       <use xlink:href="#DejaVuSans-30" x="63.623047"/>
      </g>
     </g>
    </g>
    <g id="xtick_2">
     <g id="line2d_2">
      <g>
       <use xlink:href="#mb5677977fc" x="121.019466" y="307.584" style="stroke: #000000; stroke-width: 0.8"/>
      </g>
     </g>
     <g id="text_2">
      <!-- 20 -->
      <g transform="translate(114.656966 322.182437)scale(0.1 -0.1)">
       <defs>
        <path id="DejaVuSans-32" d="M 1228 531 
L 3431 531 
L 3431 0 
L 469 0 
L 469 531 
Q 828 903 1448 1529 
Q 2069 2156 2228 2338 
Q 2531 2678 2651 2914 
Q 2772 3150 2772 3378 
Q 2772 3750 2511 3984 
Q 2250 4219 1831 4219 
Q 1534 4219 1204 4116 
Q 875 4013 500 3803 
L 500 4441 
Q 881 4594 1212 4672 
Q 1544 4750 1819 4750 
Q 2544 4750 2975 4387 
Q 3406 4025 3406 3419 
Q 3406 3131 3298 2873 
Q 3191 2616 2906 2266 
Q 2828 2175 2409 1742 
Q 1991 1309 1228 531 
z
" transform="scale(0.015625)"/>
       </defs>
       <use xlink:href="#DejaVuSans-32"/>
       <use xlink:href="#DejaVuSans-30" x="63.623047"/>
      </g>
     </g>
    </g>
    <g id="xtick_3">
     <g id="line2d_3">
      <g>
       <use xlink:href="#mb5677977fc" x="168.696804" y="307.584" style="stroke: #000000; stroke-width: 0.8"/>
      </g>
     </g>
     <g id="text_3">
      <!-- 30 -->
      <g transform="translate(162.334304 322.182437)scale(0.1 -0.1)">
       <defs>
        <path id="DejaVuSans-33" d="M 2597 2516 
Q 3050 2419 3304 2112 
Q 3559 1806 3559 1356 
Q 3559 666 3084 287 
Q 2609 -91 1734 -91 
Q 1441 -91 1130 -33 
Q 819 25 488 141 
L 488 750 
Q 750 597 1062 519 
Q 1375 441 1716 441 
Q 2309 441 2620 675 
Q 2931 909 2931 1356 
Q 2931 1769 2642 2001 
Q 2353 2234 1838 2234 
L 1294 2234 
L 1294 2753 
L 1863 2753 
Q 2328 2753 2575 2939 
Q 2822 3125 2822 3475 
Q 2822 3834 2567 4026 
Q 2313 4219 1838 4219 
Q 1578 4219 1281 4162 
Q 984 4106 628 3988 
L 628 4550 
Q 988 4650 1302 4700 
Q 1616 4750 1894 4750 
Q 2613 4750 3031 4423 
Q 3450 4097 3450 3541 
Q 3450 3153 3228 2886 
Q 3006 2619 2597 2516 
z
" transform="scale(0.015625)"/>
       </defs>
       <use xlink:href="#DejaVuSans-33"/>
       <use xlink:href="#DejaVuSans-30" x="63.623047"/>
      </g>
     </g>
    </g>
    <g id="xtick_4">
     <g id="line2d_4">
      <g>
       <use xlink:href="#mb5677977fc" x="216.374143" y="307.584" style="stroke: #000000; stroke-width: 0.8"/>
      </g>
     </g>
     <g id="text_4">
      <!-- 40 -->
      <g transform="translate(210.011643 322.182437)scale(0.1 -0.1)">
       <defs>
        <path id="DejaVuSans-34" d="M 2419 4116 
L 825 1625 
L 2419 1625 
L 2419 4116 
z
M 2253 4666 
L 3047 4666 
L 3047 1625 
L 3713 1625 
L 3713 1100 
L 3047 1100 
L 3047 0 
L 2419 0 
L 2419 1100 
L 313 1100 
L 313 1709 
L 2253 4666 
z
" transform="scale(0.015625)"/>
       </defs>
       <use xlink:href="#DejaVuSans-34"/>
       <use xlink:href="#DejaVuSans-30" x="63.623047"/>
      </g>
     </g>
    </g>
    <g id="xtick_5">
     <g id="line2d_5">
      <g>
       <use xlink:href="#mb5677977fc" x="264.051481" y="307.584" style="stroke: #000000; stroke-width: 0.8"/>
      </g>
     </g>
     <g id="text_5">
      <!-- 50 -->
      <g transform="translate(257.688981 322.182437)scale(0.1 -0.1)">
       <defs>
        <path id="DejaVuSans-35" d="M 691 4666 
L 3169 4666 
L 3169 4134 
L 1269 4134 
L 1269 2991 
Q 1406 3038 1543 3061 
Q 1681 3084 1819 3084 
Q 2600 3084 3056 2656 
Q 3513 2228 3513 1497 
Q 3513 744 3044 326 
Q 2575 -91 1722 -91 
Q 1428 -91 1123 -41 
Q 819 9 494 109 
L 494 744 
Q 775 591 1075 516 
Q 1375 441 1709 441 
Q 2250 441 2565 725 
Q 2881 1009 2881 1497 
Q 2881 1984 2565 2268 
Q 2250 2553 1709 2553 
Q 1456 2553 1204 2497 
Q 953 2441 691 2322 
L 691 4666 
z
" transform="scale(0.015625)"/>
       </defs>
       <use xlink:href="#DejaVuSans-35"/>
       <use xlink:href="#DejaVuSans-30" x="63.623047"/>
      </g>
     </g>
    </g>
    <g id="xtick_6">
     <g id="line2d_6">
      <g>
       <use xlink:href="#mb5677977fc" x="311.72882" y="307.584" style="stroke: #000000; stroke-width: 0.8"/>
      </g>
     </g>
     <g id="text_6">
      <!-- 60 -->
      <g transform="translate(305.36632 322.182437)scale(0.1 -0.1)">
       <defs>
        <path id="DejaVuSans-36" d="M 2113 2584 
Q 1688 2584 1439 2293 
Q 1191 2003 1191 1497 
Q 1191 994 1439 701 
Q 1688 409 2113 409 
Q 2538 409 2786 701 
Q 3034 994 3034 1497 
Q 3034 2003 2786 2293 
Q 2538 2584 2113 2584 
z
M 3366 4563 
L 3366 3988 
Q 3128 4100 2886 4159 
Q 2644 4219 2406 4219 
Q 1781 4219 1451 3797 
Q 1122 3375 1075 2522 
Q 1259 2794 1537 2939 
Q 1816 3084 2150 3084 
Q 2853 3084 3261 2657 
Q 3669 2231 3669 1497 
Q 3669 778 3244 343 
Q 2819 -91 2113 -91 
Q 1303 -91 875 529 
Q 447 1150 447 2328 
Q 447 3434 972 4092 
Q 1497 4750 2381 4750 
Q 2619 4750 2861 4703 
Q 3103 4656 3366 4563 
z
" transform="scale(0.015625)"/>
       </defs>
       <use xlink:href="#DejaVuSans-36"/>
       <use xlink:href="#DejaVuSans-30" x="63.623047"/>
      </g>
     </g>
    </g>
    <g id="xtick_7">
     <g id="line2d_7">
      <g>
       <use xlink:href="#mb5677977fc" x="359.406158" y="307.584" style="stroke: #000000; stroke-width: 0.8"/>
      </g>
     </g>
     <g id="text_7">
      <!-- 70 -->
      <g transform="translate(353.043658 322.182437)scale(0.1 -0.1)">
       <defs>
        <path id="DejaVuSans-37" d="M 525 4666 
L 3525 4666 
L 3525 4397 
L 1831 0 
L 1172 0 
L 2766 4134 
L 525 4134 
L 525 4666 
z
" transform="scale(0.015625)"/>
       </defs>
       <use xlink:href="#DejaVuSans-37"/>
       <use xlink:href="#DejaVuSans-30" x="63.623047"/>
      </g>
     </g>
    </g>
    <g id="xtick_8">
     <g id="line2d_8">
      <g>
       <use xlink:href="#mb5677977fc" x="407.083497" y="307.584" style="stroke: #000000; stroke-width: 0.8"/>
      </g>
     </g>
     <g id="text_8">
      <!-- 80 -->
      <g transform="translate(400.720997 322.182437)scale(0.1 -0.1)">
       <defs>
        <path id="DejaVuSans-38" d="M 2034 2216 
Q 1584 2216 1326 1975 
Q 1069 1734 1069 1313 
Q 1069 891 1326 650 
Q 1584 409 2034 409 
Q 2484 409 2743 651 
Q 3003 894 3003 1313 
Q 3003 1734 2745 1975 
Q 2488 2216 2034 2216 
z
M 1403 2484 
Q 997 2584 770 2862 
Q 544 3141 544 3541 
Q 544 4100 942 4425 
Q 1341 4750 2034 4750 
Q 2731 4750 3128 4425 
Q 3525 4100 3525 3541 
Q 3525 3141 3298 2862 
Q 3072 2584 2669 2484 
Q 3125 2378 3379 2068 
Q 3634 1759 3634 1313 
Q 3634 634 3220 271 
Q 2806 -91 2034 -91 
Q 1263 -91 848 271 
Q 434 634 434 1313 
Q 434 1759 690 2068 
Q 947 2378 1403 2484 
z
M 1172 3481 
Q 1172 3119 1398 2916 
Q 1625 2713 2034 2713 
Q 2441 2713 2670 2916 
Q 2900 3119 2900 3481 
Q 2900 3844 2670 4047 
Q 2441 4250 2034 4250 
Q 1625 4250 1398 4047 
Q 1172 3844 1172 3481 
z
" transform="scale(0.015625)"/>
       </defs>
       <use xlink:href="#DejaVuSans-38"/>
       <use xlink:href="#DejaVuSans-30" x="63.623047"/>
      </g>
     </g>
    </g>
   </g>
   <g id="matplotlib.axis_2">
    <g id="ytick_1">
     <g id="line2d_9">
      <defs>
       <path id="m5c9c7dd42c" d="M 0 0 
L -3.5 0 
" style="stroke: #000000; stroke-width: 0.8"/>
      </defs>
      <g>
       <use xlink:href="#m5c9c7dd42c" x="57.6" y="286.426193" style="stroke: #000000; stroke-width: 0.8"/>
      </g>
     </g>
     <g id="text_9">
      <!-- 0 -->
      <g transform="translate(44.2375 290.225412)scale(0.1 -0.1)">
       <use xlink:href="#DejaVuSans-30"/>
      </g>
     </g>
    </g>
    <g id="ytick_2">
     <g id="line2d_10">
      <g>
       <use xlink:href="#m5c9c7dd42c" x="57.6" y="234.982983" style="stroke: #000000; stroke-width: 0.8"/>
      </g>
     </g>
     <g id="text_10">
      <!-- 20 -->
      <g transform="translate(37.875 238.782202)scale(0.1 -0.1)">
       <use xlink:href="#DejaVuSans-32"/>
       <use xlink:href="#DejaVuSans-30" x="63.623047"/>
      </g>
     </g>
    </g>
    <g id="ytick_3">
     <g id="line2d_11">
      <g>
       <use xlink:href="#m5c9c7dd42c" x="57.6" y="183.539772" style="stroke: #000000; stroke-width: 0.8"/>
      </g>
     </g>
     <g id="text_11">
      <!-- 40 -->
      <g transform="translate(37.875 187.338991)scale(0.1 -0.1)">
       <use xlink:href="#DejaVuSans-34"/>
       <use xlink:href="#DejaVuSans-30" x="63.623047"/>
      </g>
     </g>
    </g>
    <g id="ytick_4">
     <g id="line2d_12">
      <g>
       <use xlink:href="#m5c9c7dd42c" x="57.6" y="132.096562" style="stroke: #000000; stroke-width: 0.8"/>
      </g>
     </g>
     <g id="text_12">
      <!-- 60 -->
      <g transform="translate(37.875 135.89578)scale(0.1 -0.1)">
       <use xlink:href="#DejaVuSans-36"/>
       <use xlink:href="#DejaVuSans-30" x="63.623047"/>
      </g>
     </g>
    </g>
    <g id="ytick_5">
     <g id="line2d_13">
      <g>
       <use xlink:href="#m5c9c7dd42c" x="57.6" y="80.653351" style="stroke: #000000; stroke-width: 0.8"/>
      </g>
     </g>
     <g id="text_13">
      <!-- 80 -->
      <g transform="translate(37.875 84.45257)scale(0.1 -0.1)">
       <use xlink:href="#DejaVuSans-38"/>
       <use xlink:href="#DejaVuSans-30" x="63.623047"/>
      </g>
     </g>
    </g>
   </g>
   <g id="LineCollection_1">
    <path d="M 73.832727 57.172747 
L 73.995784 57.172747 
" clip-path="url(#paceda032e6)" style="fill: none; stroke: #1f77b4; stroke-width: 1.5"/>
    <path d="M 113.886936 102.425712 
L 114.039504 102.425712 
" clip-path="url(#paceda032e6)" style="fill: none; stroke: #1f77b4; stroke-width: 1.5"/>
    <path d="M 154.455583 130.475747 
L 154.617686 130.475747 
" clip-path="url(#paceda032e6)" style="fill: none; stroke: #1f77b4; stroke-width: 1.5"/>
    <path d="M 194.552225 148.373212 
L 194.714328 148.373212 
" clip-path="url(#paceda032e6)" style="fill: none; stroke: #1f77b4; stroke-width: 1.5"/>
    <path d="M 235.12564 190.23376 
L 235.287743 190.23376 
" clip-path="url(#paceda032e6)" style="fill: none; stroke: #1f77b4; stroke-width: 1.5"/>
    <path d="M 275.699055 217.749618 
L 275.861158 217.749618 
" clip-path="url(#paceda032e6)" style="fill: none; stroke: #1f77b4; stroke-width: 1.5"/>
    <path d="M 316.749244 229.761309 
L 316.911347 229.761309 
" clip-path="url(#paceda032e6)" style="fill: none; stroke: #1f77b4; stroke-width: 1.5"/>
    <path d="M 357.274505 256.575108 
L 357.437561 256.575108 
" clip-path="url(#paceda032e6)" style="fill: none; stroke: #1f77b4; stroke-width: 1.5"/>
    <path d="M 398.32517 286.426193 
L 398.487273 286.426193 
" clip-path="url(#paceda032e6)" style="fill: none; stroke: #1f77b4; stroke-width: 1.5"/>
   </g>
   <g id="LineCollection_2">
    <path d="M 73.914256 60.777493 
L 73.914256 53.568 
" clip-path="url(#paceda032e6)" style="fill: none; stroke: #1f77b4; stroke-width: 1.5"/>
    <path d="M 113.96322 105.401339 
L 113.96322 99.450085 
" clip-path="url(#paceda032e6)" style="fill: none; stroke: #1f77b4; stroke-width: 1.5"/>
    <path d="M 154.536635 135.743221 
L 154.536635 125.208273 
" clip-path="url(#paceda032e6)" style="fill: none; stroke: #1f77b4; stroke-width: 1.5"/>
    <path d="M 194.633277 152.009697 
L 194.633277 144.736727 
" clip-path="url(#paceda032e6)" style="fill: none; stroke: #1f77b4; stroke-width: 1.5"/>
    <path d="M 235.206692 192.789029 
L 235.206692 187.678491 
" clip-path="url(#paceda032e6)" style="fill: none; stroke: #1f77b4; stroke-width: 1.5"/>
    <path d="M 275.780107 222.255172 
L 275.780107 213.244064 
" clip-path="url(#paceda032e6)" style="fill: none; stroke: #1f77b4; stroke-width: 1.5"/>
    <path d="M 316.830295 234.492504 
L 316.830295 225.030113 
" clip-path="url(#paceda032e6)" style="fill: none; stroke: #1f77b4; stroke-width: 1.5"/>
    <path d="M 357.356033 259.113453 
L 357.356033 254.036762 
" clip-path="url(#paceda032e6)" style="fill: none; stroke: #1f77b4; stroke-width: 1.5"/>
    <path d="M 398.406221 288.998354 
L 398.406221 283.854033 
" clip-path="url(#paceda032e6)" style="fill: none; stroke: #1f77b4; stroke-width: 1.5"/>
   </g>
   <g id="line2d_14">
    <path d="M 73.914256 70.481021 
L 113.96322 97.582048 
L 154.536635 125.037969 
L 194.633277 152.171259 
L 235.206692 179.62718 
L 275.780107 207.083101 
L 316.830295 234.861653 
L 357.356033 262.285311 
L 398.406221 290.063864 
" clip-path="url(#paceda032e6)" style="fill: none; stroke: #ff0000; stroke-width: 1.5; stroke-linecap: square"/>
   </g>
   <g id="line2d_15">
    <defs>
     <path id="m8e5dfe40b5" d="M -1 1 
L 1 1 
L 1 -1 
L -1 -1 
z
" style="stroke: #1f77b4; stroke-linejoin: miter"/>
    </defs>
    <g clip-path="url(#paceda032e6)">
     <use xlink:href="#m8e5dfe40b5" x="73.914256" y="57.172747" style="fill: #1f77b4; stroke: #1f77b4; stroke-linejoin: miter"/>
     <use xlink:href="#m8e5dfe40b5" x="113.96322" y="102.425712" style="fill: #1f77b4; stroke: #1f77b4; stroke-linejoin: miter"/>
     <use xlink:href="#m8e5dfe40b5" x="154.536635" y="130.475747" style="fill: #1f77b4; stroke: #1f77b4; stroke-linejoin: miter"/>
     <use xlink:href="#m8e5dfe40b5" x="194.633277" y="148.373212" style="fill: #1f77b4; stroke: #1f77b4; stroke-linejoin: miter"/>
     <use xlink:href="#m8e5dfe40b5" x="235.206692" y="190.23376" style="fill: #1f77b4; stroke: #1f77b4; stroke-linejoin: miter"/>
     <use xlink:href="#m8e5dfe40b5" x="275.780107" y="217.749618" style="fill: #1f77b4; stroke: #1f77b4; stroke-linejoin: miter"/>
     <use xlink:href="#m8e5dfe40b5" x="316.830295" y="229.761309" style="fill: #1f77b4; stroke: #1f77b4; stroke-linejoin: miter"/>
     <use xlink:href="#m8e5dfe40b5" x="357.356033" y="256.575108" style="fill: #1f77b4; stroke: #1f77b4; stroke-linejoin: miter"/>
     <use xlink:href="#m8e5dfe40b5" x="398.406221" y="286.426193" style="fill: #1f77b4; stroke: #1f77b4; stroke-linejoin: miter"/>
    </g>
   </g>
   <g id="patch_3">
    <path d="M 57.6 307.584 
L 57.6 41.472 
" style="fill: none; stroke: #000000; stroke-width: 0.8; stroke-linejoin: miter; stroke-linecap: square"/>
   </g>
   <g id="patch_4">
    <path d="M 414.72 307.584 
L 414.72 41.472 
" style="fill: none; stroke: #000000; stroke-width: 0.8; stroke-linejoin: miter; stroke-linecap: square"/>
   </g>
   <g id="patch_5">
    <path d="M 57.6 307.584 
L 414.72 307.584 
" style="fill: none; stroke: #000000; stroke-width: 0.8; stroke-linejoin: miter; stroke-linecap: square"/>
   </g>
   <g id="patch_6">
    <path d="M 57.6 41.472 
L 414.72 41.472 
" style="fill: none; stroke: #000000; stroke-width: 0.8; stroke-linejoin: miter; stroke-linecap: square"/>
   </g>
   <g id="legend_1">
    <g id="patch_7">
     <path d="M 197.009062 64.150125 
L 407.72 64.150125 
Q 409.72 64.150125 409.72 62.150125 
L 409.72 48.472 
Q 409.72 46.472 407.72 46.472 
L 197.009062 46.472 
Q 195.009062 46.472 195.009062 48.472 
L 195.009062 62.150125 
Q 195.009062 64.150125 197.009062 64.150125 
z
" style="fill: #ffffff; opacity: 0.8; stroke: #cccccc; stroke-linejoin: miter"/>
    </g>
    <g id="line2d_16">
     <path d="M 199.009062 54.570438 
L 209.009062 54.570438 
L 219.009062 54.570438 
" style="fill: none; stroke: #ff0000; stroke-width: 1.5; stroke-linecap: square"/>
    </g>
    <g id="text_14">
     <!-- fit: slope=-1.254, intercept=96.649 -->
     <g transform="translate(227.009062 58.070438)scale(0.1 -0.1)">
      <defs>
       <path id="DejaVuSans-66" d="M 2375 4863 
L 2375 4384 
L 1825 4384 
Q 1516 4384 1395 4259 
Q 1275 4134 1275 3809 
L 1275 3500 
L 2222 3500 
L 2222 3053 
L 1275 3053 
L 1275 0 
L 697 0 
L 697 3053 
L 147 3053 
L 147 3500 
L 697 3500 
L 697 3744 
Q 697 4328 969 4595 
Q 1241 4863 1831 4863 
L 2375 4863 
z
" transform="scale(0.015625)"/>
       <path id="DejaVuSans-69" d="M 603 3500 
L 1178 3500 
L 1178 0 
L 603 0 
L 603 3500 
z
M 603 4863 
L 1178 4863 
L 1178 4134 
L 603 4134 
L 603 4863 
z
" transform="scale(0.015625)"/>
       <path id="DejaVuSans-74" d="M 1172 4494 
L 1172 3500 
L 2356 3500 
L 2356 3053 
L 1172 3053 
L 1172 1153 
Q 1172 725 1289 603 
Q 1406 481 1766 481 
L 2356 481 
L 2356 0 
L 1766 0 
Q 1100 0 847 248 
Q 594 497 594 1153 
L 594 3053 
L 172 3053 
L 172 3500 
L 594 3500 
L 594 4494 
L 1172 4494 
z
" transform="scale(0.015625)"/>
       <path id="DejaVuSans-3a" d="M 750 794 
L 1409 794 
L 1409 0 
L 750 0 
L 750 794 
z
M 750 3309 
L 1409 3309 
L 1409 2516 
L 750 2516 
L 750 3309 
z
" transform="scale(0.015625)"/>
       <path id="DejaVuSans-20" transform="scale(0.015625)"/>
       <path id="DejaVuSans-73" d="M 2834 3397 
L 2834 2853 
Q 2591 2978 2328 3040 
Q 2066 3103 1784 3103 
Q 1356 3103 1142 2972 
Q 928 2841 928 2578 
Q 928 2378 1081 2264 
Q 1234 2150 1697 2047 
L 1894 2003 
Q 2506 1872 2764 1633 
Q 3022 1394 3022 966 
Q 3022 478 2636 193 
Q 2250 -91 1575 -91 
Q 1294 -91 989 -36 
Q 684 19 347 128 
L 347 722 
Q 666 556 975 473 
Q 1284 391 1588 391 
Q 1994 391 2212 530 
Q 2431 669 2431 922 
Q 2431 1156 2273 1281 
Q 2116 1406 1581 1522 
L 1381 1569 
Q 847 1681 609 1914 
Q 372 2147 372 2553 
Q 372 3047 722 3315 
Q 1072 3584 1716 3584 
Q 2034 3584 2315 3537 
Q 2597 3491 2834 3397 
z
" transform="scale(0.015625)"/>
       <path id="DejaVuSans-6c" d="M 603 4863 
L 1178 4863 
L 1178 0 
L 603 0 
L 603 4863 
z
" transform="scale(0.015625)"/>
       <path id="DejaVuSans-6f" d="M 1959 3097 
Q 1497 3097 1228 2736 
Q 959 2375 959 1747 
Q 959 1119 1226 758 
Q 1494 397 1959 397 
Q 2419 397 2687 759 
Q 2956 1122 2956 1747 
Q 2956 2369 2687 2733 
Q 2419 3097 1959 3097 
z
M 1959 3584 
Q 2709 3584 3137 3096 
Q 3566 2609 3566 1747 
Q 3566 888 3137 398 
Q 2709 -91 1959 -91 
Q 1206 -91 779 398 
Q 353 888 353 1747 
Q 353 2609 779 3096 
Q 1206 3584 1959 3584 
z
" transform="scale(0.015625)"/>
       <path id="DejaVuSans-70" d="M 1159 525 
L 1159 -1331 
L 581 -1331 
L 581 3500 
L 1159 3500 
L 1159 2969 
Q 1341 3281 1617 3432 
Q 1894 3584 2278 3584 
Q 2916 3584 3314 3078 
Q 3713 2572 3713 1747 
Q 3713 922 3314 415 
Q 2916 -91 2278 -91 
Q 1894 -91 1617 61 
Q 1341 213 1159 525 
z
M 3116 1747 
Q 3116 2381 2855 2742 
Q 2594 3103 2138 3103 
Q 1681 3103 1420 2742 
Q 1159 2381 1159 1747 
Q 1159 1113 1420 752 
Q 1681 391 2138 391 
Q 2594 391 2855 752 
Q 3116 1113 3116 1747 
z
" transform="scale(0.015625)"/>
       <path id="DejaVuSans-65" d="M 3597 1894 
L 3597 1613 
L 953 1613 
Q 991 1019 1311 708 
Q 1631 397 2203 397 
Q 2534 397 2845 478 
Q 3156 559 3463 722 
L 3463 178 
Q 3153 47 2828 -22 
Q 2503 -91 2169 -91 
Q 1331 -91 842 396 
Q 353 884 353 1716 
Q 353 2575 817 3079 
Q 1281 3584 2069 3584 
Q 2775 3584 3186 3129 
Q 3597 2675 3597 1894 
z
M 3022 2063 
Q 3016 2534 2758 2815 
Q 2500 3097 2075 3097 
Q 1594 3097 1305 2825 
Q 1016 2553 972 2059 
L 3022 2063 
z
" transform="scale(0.015625)"/>
       <path id="DejaVuSans-3d" d="M 678 2906 
L 4684 2906 
L 4684 2381 
L 678 2381 
L 678 2906 
z
M 678 1631 
L 4684 1631 
L 4684 1100 
L 678 1100 
L 678 1631 
z
" transform="scale(0.015625)"/>
       <path id="DejaVuSans-2d" d="M 313 2009 
L 1997 2009 
L 1997 1497 
L 313 1497 
L 313 2009 
z
" transform="scale(0.015625)"/>
       <path id="DejaVuSans-2e" d="M 684 794 
L 1344 794 
L 1344 0 
L 684 0 
L 684 794 
z
" transform="scale(0.015625)"/>
       <path id="DejaVuSans-2c" d="M 750 794 
L 1409 794 
L 1409 256 
L 897 -744 
L 494 -744 
L 750 256 
L 750 794 
z
" transform="scale(0.015625)"/>
       <path id="DejaVuSans-6e" d="M 3513 2113 
L 3513 0 
L 2938 0 
L 2938 2094 
Q 2938 2591 2744 2837 
Q 2550 3084 2163 3084 
Q 1697 3084 1428 2787 
Q 1159 2491 1159 1978 
L 1159 0 
L 581 0 
L 581 3500 
L 1159 3500 
L 1159 2956 
Q 1366 3272 1645 3428 
Q 1925 3584 2291 3584 
Q 2894 3584 3203 3211 
Q 3513 2838 3513 2113 
z
" transform="scale(0.015625)"/>
       <path id="DejaVuSans-72" d="M 2631 2963 
Q 2534 3019 2420 3045 
Q 2306 3072 2169 3072 
Q 1681 3072 1420 2755 
Q 1159 2438 1159 1844 
L 1159 0 
L 581 0 
L 581 3500 
L 1159 3500 
L 1159 2956 
Q 1341 3275 1631 3429 
Q 1922 3584 2338 3584 
Q 2397 3584 2469 3576 
Q 2541 3569 2628 3553 
L 2631 2963 
z
" transform="scale(0.015625)"/>
       <path id="DejaVuSans-63" d="M 3122 3366 
L 3122 2828 
Q 2878 2963 2633 3030 
Q 2388 3097 2138 3097 
Q 1578 3097 1268 2742 
Q 959 2388 959 1747 
Q 959 1106 1268 751 
Q 1578 397 2138 397 
Q 2388 397 2633 464 
Q 2878 531 3122 666 
L 3122 134 
Q 2881 22 2623 -34 
Q 2366 -91 2075 -91 
Q 1284 -91 818 406 
Q 353 903 353 1747 
Q 353 2603 823 3093 
Q 1294 3584 2113 3584 
Q 2378 3584 2631 3529 
Q 2884 3475 3122 3366 
z
" transform="scale(0.015625)"/>
       <path id="DejaVuSans-39" d="M 703 97 
L 703 672 
Q 941 559 1184 500 
Q 1428 441 1663 441 
Q 2288 441 2617 861 
Q 2947 1281 2994 2138 
Q 2813 1869 2534 1725 
Q 2256 1581 1919 1581 
Q 1219 1581 811 2004 
Q 403 2428 403 3163 
Q 403 3881 828 4315 
Q 1253 4750 1959 4750 
Q 2769 4750 3195 4129 
Q 3622 3509 3622 2328 
Q 3622 1225 3098 567 
Q 2575 -91 1691 -91 
Q 1453 -91 1209 -44 
Q 966 3 703 97 
z
M 1959 2075 
Q 2384 2075 2632 2365 
Q 2881 2656 2881 3163 
Q 2881 3666 2632 3958 
Q 2384 4250 1959 4250 
Q 1534 4250 1286 3958 
Q 1038 3666 1038 3163 
Q 1038 2656 1286 2365 
Q 1534 2075 1959 2075 
z
" transform="scale(0.015625)"/>
      </defs>
      <use xlink:href="#DejaVuSans-66"/>
      <use xlink:href="#DejaVuSans-69" x="35.205078"/>
      <use xlink:href="#DejaVuSans-74" x="62.988281"/>
      <use xlink:href="#DejaVuSans-3a" x="102.197266"/>
      <use xlink:href="#DejaVuSans-20" x="135.888672"/>
      <use xlink:href="#DejaVuSans-73" x="167.675781"/>
      <use xlink:href="#DejaVuSans-6c" x="219.775391"/>
      <use xlink:href="#DejaVuSans-6f" x="247.558594"/>
      <use xlink:href="#DejaVuSans-70" x="308.740234"/>
      <use xlink:href="#DejaVuSans-65" x="372.216797"/>
      <use xlink:href="#DejaVuSans-3d" x="433.740234"/>
      <use xlink:href="#DejaVuSans-2d" x="517.529297"/>
      <use xlink:href="#DejaVuSans-31" x="553.613281"/>
      <use xlink:href="#DejaVuSans-2e" x="617.236328"/>
      <use xlink:href="#DejaVuSans-32" x="649.023438"/>
      <use xlink:href="#DejaVuSans-35" x="712.646484"/>
      <use xlink:href="#DejaVuSans-34" x="776.269531"/>
      <use xlink:href="#DejaVuSans-2c" x="839.892578"/>
      <use xlink:href="#DejaVuSans-20" x="871.679688"/>
      <use xlink:href="#DejaVuSans-69" x="903.466797"/>
      <use xlink:href="#DejaVuSans-6e" x="931.25"/>
      <use xlink:href="#DejaVuSans-74" x="994.628906"/>
      <use xlink:href="#DejaVuSans-65" x="1033.837891"/>
      <use xlink:href="#DejaVuSans-72" x="1095.361328"/>
      <use xlink:href="#DejaVuSans-63" x="1134.224609"/>
      <use xlink:href="#DejaVuSans-65" x="1189.205078"/>
      <use xlink:href="#DejaVuSans-70" x="1250.728516"/>
      <use xlink:href="#DejaVuSans-74" x="1314.205078"/>
      <use xlink:href="#DejaVuSans-3d" x="1353.414062"/>
      <use xlink:href="#DejaVuSans-39" x="1437.203125"/>
      <use xlink:href="#DejaVuSans-36" x="1500.826172"/>
      <use xlink:href="#DejaVuSans-2e" x="1564.449219"/>
      <use xlink:href="#DejaVuSans-36" x="1596.236328"/>
      <use xlink:href="#DejaVuSans-34" x="1659.859375"/>
      <use xlink:href="#DejaVuSans-39" x="1723.482422"/>
     </g>
    </g>
   </g>
  </g>
 </g>
 <defs>
  <clipPath id="paceda032e6">
   <rect x="57.6" y="41.472" width="357.12" height="266.112"/>
  </clipPath>
 </defs>
</svg>
