<?xml version="1.0" encoding="utf-8" standalone="no"?>
<!DOCTYPE svg PUBLIC "-//W3C//DTD SVG 1.1//EN"
  "http://www.w3.org/Graphics/SVG/1.1/DTD/svg11.dtd">
<svg xmlns:xlink="http://www.w3.org/1999/xlink" width="360pt" height="360pt" viewBox="0 0 360 360" xmlns="http://www.w3.org/2000/svg" version="1.1">
 <metadata>
  <rdf:RDF xmlns:dc="http://purl.org/dc/elements/1.1/" xmlns:cc="http://creativecommons.org/ns#" xmlns:rdf="http://www.w3.org/1999/02/22-rdf-syntax-ns#">
   <cc:Work>
    <dc:type rdf:resource="http://purl.org/dc/dcmitype/StillImage"/>
    <dc:date>2023-02-23T15:52:08.961632</dc:date>
    <dc:format>image/svg+xml</dc:format>
    <dc:creator>
     <cc:Agent>
      <dc:title>Matplotlib v3.5.2, https://matplotlib.org/</dc:title>
     </cc:Agent>
    </dc:creator>
   </cc:Work>
  </rdf:RDF>
 </metadata>
 <defs>
  <style type="text/css">*{stroke-linejoin: round; stroke-linecap: butt}</style>
 </defs>
 <g id="figure_1">
  <g id="patch_1">
   <path d="M 0 360 
L 360 360 
L 360 0 
L 0 0 
z
" style="fill: #ffffff"/>
  </g>
  <g id="axes_1">
   <g id="patch_2">
    <path d="M 44.66 318.04 
L 349.182724 318.04 
L 349.182724 10.8 
L 44.66 10.8 
z
" style="fill: #ffffff"/>
   </g>
   <g id="PathCollection_1">
    <defs>
     <path id="mb3d5429138" d="M 0 3 
C 0.795609 3 1.55874 2.683901 2.12132 2.12132 
C 2.683901 1.55874 3 0.795609 3 0 
C 3 -0.795609 2.683901 -1.55874 2.12132 -2.12132 
C 1.55874 -2.683901 0.795609 -3 0 -3 
C -0.795609 -3 -1.55874 -2.683901 -2.12132 -2.12132 
C -2.683901 -1.55874 -3 -0.795609 -3 0 
C -3 0.795609 -2.683901 1.55874 -2.12132 2.12132 
C -1.55874 2.683901 -0.795609 3 0 3 
z
" style="stroke: #1f77b4; stroke-opacity: 0.8"/>
    </defs>
    <g clip-path="url(#p267c153dce)">
     <use xlink:href="#mb3d5429138" x="58.501942" y="24.765455" style="fill: #1f77b4; fill-opacity: 0.8; stroke: #1f77b4; stroke-opacity: 0.8"/>
     <use xlink:href="#mb3d5429138" x="92.669533" y="75.740516" style="fill: #1f77b4; fill-opacity: 0.8; stroke: #1f77b4; stroke-opacity: 0.8"/>
     <use xlink:href="#mb3d5429138" x="127.284557" y="107.33739" style="fill: #1f77b4; fill-opacity: 0.8; stroke: #1f77b4; stroke-opacity: 0.8"/>
     <use xlink:href="#mb3d5429138" x="161.492824" y="127.497933" style="fill: #1f77b4; fill-opacity: 0.8; stroke: #1f77b4; stroke-opacity: 0.8"/>
     <use xlink:href="#mb3d5429138" x="196.107848" y="174.651617" style="fill: #1f77b4; fill-opacity: 0.8; stroke: #1f77b4; stroke-opacity: 0.8"/>
     <use xlink:href="#mb3d5429138" x="230.722872" y="205.646769" style="fill: #1f77b4; fill-opacity: 0.8; stroke: #1f77b4; stroke-opacity: 0.8"/>
     <use xlink:href="#mb3d5429138" x="265.744653" y="219.1773" style="fill: #1f77b4; fill-opacity: 0.8; stroke: #1f77b4; stroke-opacity: 0.8"/>
     <use xlink:href="#mb3d5429138" x="300.319001" y="249.38162" style="fill: #1f77b4; fill-opacity: 0.8; stroke: #1f77b4; stroke-opacity: 0.8"/>
     <use xlink:href="#mb3d5429138" x="335.340782" y="283.007282" style="fill: #1f77b4; fill-opacity: 0.8; stroke: #1f77b4; stroke-opacity: 0.8"/>
    </g>
   </g>
   <g id="PolyCollection_1">
    <path d="M 58.501942 28.983285 
L 58.501942 54.111699 
L 61.298294 56.412182 
L 64.094646 58.712665 
L 66.890998 61.013148 
L 69.68735 63.313631 
L 72.483702 65.614114 
L 75.280054 67.914597 
L 78.076405 70.236898 
L 80.872757 72.563925 
L 83.669109 74.886479 
L 86.465461 77.18635 
L 89.261813 79.486221 
L 92.058165 81.786093 
L 94.854517 84.085964 
L 97.650869 86.385835 
L 100.447221 88.685706 
L 103.243573 90.985577 
L 106.039925 93.285448 
L 108.836277 95.585319 
L 111.632629 97.9065 
L 114.42898 100.234592 
L 117.225332 102.562478 
L 120.021684 104.890365 
L 122.818036 107.218251 
L 125.614388 109.546137 
L 128.41074 111.874024 
L 131.207092 114.20191 
L 134.003444 116.529062 
L 136.799796 118.856155 
L 139.596148 121.185546 
L 142.3925 123.513455 
L 145.188852 125.833636 
L 147.985203 128.199543 
L 150.781555 130.613315 
L 153.577907 133.084831 
L 156.374259 135.43738 
L 159.170611 137.798724 
L 161.966963 140.115952 
L 164.763315 142.409253 
L 167.559667 144.859956 
L 170.356019 147.381417 
L 173.152371 149.861322 
L 175.948723 152.595694 
L 178.745075 155.046591 
L 181.541427 157.515681 
L 184.337778 159.961615 
L 187.13413 162.600269 
L 189.930482 165.233472 
L 192.726834 167.560729 
L 195.523186 169.882342 
L 198.319538 172.355664 
L 201.11589 174.640834 
L 203.912242 177.176906 
L 206.708594 179.793341 
L 209.504946 182.557554 
L 212.301298 185.257234 
L 215.09765 187.943642 
L 217.894002 190.618081 
L 220.690353 193.234296 
L 223.486705 195.739123 
L 226.283057 198.314767 
L 229.079409 200.99836 
L 231.875761 203.681953 
L 234.672113 206.35647 
L 237.468465 208.99076 
L 240.264817 211.723807 
L 243.061169 214.410791 
L 245.857521 217.097775 
L 248.653873 219.783509 
L 251.450225 222.467102 
L 254.246576 225.150695 
L 257.042928 227.854744 
L 259.83928 230.642432 
L 262.635632 233.43012 
L 265.431984 236.217807 
L 268.228336 239.005495 
L 271.024688 241.760316 
L 273.82104 244.383804 
L 276.617392 247.00721 
L 279.413744 249.630615 
L 282.210096 252.254021 
L 285.006448 254.877426 
L 287.8028 257.500831 
L 290.599151 260.124237 
L 293.395503 262.823074 
L 296.191855 265.559277 
L 298.988207 268.309461 
L 301.784559 271.059645 
L 304.580911 273.809829 
L 307.377263 276.563149 
L 310.173615 279.329541 
L 312.969967 282.095933 
L 315.766319 284.862324 
L 318.562671 287.57632 
L 321.359023 290.314198 
L 324.155375 293.066267 
L 326.951726 295.818337 
L 329.748078 298.570406 
L 332.54443 301.322476 
L 335.340782 304.074545 
L 335.340782 279.521629 
L 335.340782 279.521629 
L 332.54443 277.222319 
L 329.748078 274.887629 
L 326.951726 272.577869 
L 324.155375 270.268561 
L 321.359023 267.930447 
L 318.562671 265.598788 
L 315.766319 263.288705 
L 312.969967 260.931178 
L 310.173615 258.605347 
L 307.377263 256.241955 
L 304.580911 253.827319 
L 301.784559 251.433417 
L 298.988207 249.034327 
L 296.191855 246.655511 
L 293.395503 244.263243 
L 290.599151 241.815154 
L 287.8028 239.421909 
L 285.006448 237.004058 
L 282.210096 234.528146 
L 279.413744 232.126267 
L 276.617392 229.688272 
L 273.82104 227.268264 
L 271.024688 224.784925 
L 268.228336 222.327821 
L 265.431984 219.85283 
L 262.635632 217.325499 
L 259.83928 214.803568 
L 257.042928 212.377196 
L 254.246576 209.860263 
L 251.450225 207.313757 
L 248.653873 204.797255 
L 245.857521 202.322855 
L 243.061169 199.837443 
L 240.264817 197.291737 
L 237.468465 194.747616 
L 234.672113 192.274129 
L 231.875761 189.673661 
L 229.079409 187.162651 
L 226.283057 184.631628 
L 223.486705 182.080954 
L 220.690353 179.52515 
L 217.894002 176.978916 
L 215.09765 174.471186 
L 212.301298 171.918518 
L 209.504946 169.356007 
L 206.708594 166.810792 
L 203.912242 164.296121 
L 201.11589 161.786775 
L 198.319538 159.183555 
L 195.523186 156.562175 
L 192.726834 154.013832 
L 189.930482 151.454165 
L 187.13413 148.861311 
L 184.337778 146.292512 
L 181.541427 143.735751 
L 178.745075 141.179153 
L 175.948723 138.622981 
L 173.152371 136.067063 
L 170.356019 133.507839 
L 167.559667 130.953718 
L 164.763315 128.352889 
L 161.966963 125.796186 
L 159.170611 123.20498 
L 156.374259 120.611326 
L 153.577907 118.007887 
L 150.781555 115.417469 
L 147.985203 112.834735 
L 145.188852 110.252001 
L 142.3925 107.669267 
L 139.596148 105.086533 
L 136.799796 102.503798 
L 134.003444 99.921064 
L 131.207092 97.33833 
L 128.41074 94.755596 
L 125.614388 92.13086 
L 122.818036 89.494641 
L 120.021684 86.858526 
L 117.225332 84.223681 
L 114.42898 81.660313 
L 111.632629 78.945277 
L 108.836277 76.307011 
L 106.039925 73.670228 
L 103.243573 71.078742 
L 100.447221 68.491665 
L 97.650869 65.903352 
L 94.854517 63.315556 
L 92.058165 60.728033 
L 89.261813 58.162181 
L 86.465461 55.599306 
L 83.669109 53.036432 
L 80.872757 50.473557 
L 78.076405 47.78669 
L 75.280054 45.197419 
L 72.483702 42.555419 
L 69.68735 39.911775 
L 66.890998 37.109416 
L 64.094646 34.463355 
L 61.298294 31.760287 
L 58.501942 28.983285 
z
" clip-path="url(#p267c153dce)" style="fill: #1f77b4; fill-opacity: 0.15"/>
   </g>
   <g id="matplotlib.axis_1">
    <g id="xtick_1">
     <g id="line2d_1">
      <defs>
       <path id="m6b6810369b" d="M 0 0 
L 0 3.5 
" style="stroke: #000000; stroke-width: 0.8"/>
      </defs>
      <g>
       <use xlink:href="#m6b6810369b" x="58.013834" y="318.04" style="stroke: #000000; stroke-width: 0.8"/>
      </g>
     </g>
     <g id="text_1">
      <!-- 10 -->
      <g transform="translate(51.651334 332.638438)scale(0.1 -0.1)">
       <defs>
        <path id="DejaVuSans-31" d="M 794 531 
L 1825 531 
L 1825 4091 
L 703 3866 
L 703 4441 
L 1819 4666 
L 2450 4666 
L 2450 531 
L 3481 531 
L 3481 0 
L 794 0 
L 794 531 
z
" transform="scale(0.015625)"/>
        <path id="DejaVuSans-30" d="M 2034 4250 
Q 1547 4250 1301 3770 
Q 1056 3291 1056 2328 
Q 1056 1369 1301 889 
Q 1547 409 2034 409 
Q 2525 409 2770 889 
Q 3016 1369 3016 2328 
Q 3016 3291 2770 3770 
Q 2525 4250 2034 4250 
z
M 2034 4750 
Q 2819 4750 3233 4129 
Q 3647 3509 3647 2328 
Q 3647 1150 3233 529 
Q 2819 -91 2034 -91 
Q 1250 -91 836 529 
Q 422 1150 422 2328 
Q 422 3509 836 4129 
Q 1250 4750 2034 4750 
z
" transform="scale(0.015625)"/>
       </defs>
       <use xlink:href="#DejaVuSans-31"/>
       <use xlink:href="#DejaVuSans-30" x="63.623047"/>
      </g>
     </g>
    </g>
    <g id="xtick_2">
     <g id="line2d_2">
      <g>
       <use xlink:href="#m6b6810369b" x="98.689537" y="318.04" style="stroke: #000000; stroke-width: 0.8"/>
      </g>
     </g>
     <g id="text_2">
      <!-- 20 -->
      <g transform="translate(92.327037 332.638438)scale(0.1 -0.1)">
       <defs>
        <path id="DejaVuSans-32" d="M 1228 531 
L 3431 531 
L 3431 0 
L 469 0 
L 469 531 
Q 828 903 1448 1529 
Q 2069 2156 2228 2338 
Q 2531 2678 2651 2914 
Q 2772 3150 2772 3378 
Q 2772 3750 2511 3984 
Q 2250 4219 1831 4219 
Q 1534 4219 1204 4116 
Q 875 4013 500 3803 
L 500 4441 
Q 881 4594 1212 4672 
Q 1544 4750 1819 4750 
Q 2544 4750 2975 4387 
Q 3406 4025 3406 3419 
Q 3406 3131 3298 2873 
Q 3191 2616 2906 2266 
Q 2828 2175 2409 1742 
Q 1991 1309 1228 531 
z
" transform="scale(0.015625)"/>
       </defs>
       <use xlink:href="#DejaVuSans-32"/>
       <use xlink:href="#DejaVuSans-30" x="63.623047"/>
      </g>
     </g>
    </g>
    <g id="xtick_3">
     <g id="line2d_3">
      <g>
       <use xlink:href="#m6b6810369b" x="139.365241" y="318.04" style="stroke: #000000; stroke-width: 0.8"/>
      </g>
     </g>
     <g id="text_3">
      <!-- 30 -->
      <g transform="translate(133.002741 332.638438)scale(0.1 -0.1)">
       <defs>
        <path id="DejaVuSans-33" d="M 2597 2516 
Q 3050 2419 3304 2112 
Q 3559 1806 3559 1356 
Q 3559 666 3084 287 
Q 2609 -91 1734 -91 
Q 1441 -91 1130 -33 
Q 819 25 488 141 
L 488 750 
Q 750 597 1062 519 
Q 1375 441 1716 441 
Q 2309 441 2620 675 
Q 2931 909 2931 1356 
Q 2931 1769 2642 2001 
Q 2353 2234 1838 2234 
L 1294 2234 
L 1294 2753 
L 1863 2753 
Q 2328 2753 2575 2939 
Q 2822 3125 2822 3475 
Q 2822 3834 2567 4026 
Q 2313 4219 1838 4219 
Q 1578 4219 1281 4162 
Q 984 4106 628 3988 
L 628 4550 
Q 988 4650 1302 4700 
Q 1616 4750 1894 4750 
Q 2613 4750 3031 4423 
Q 3450 4097 3450 3541 
Q 3450 3153 3228 2886 
Q 3006 2619 2597 2516 
z
" transform="scale(0.015625)"/>
       </defs>
       <use xlink:href="#DejaVuSans-33"/>
       <use xlink:href="#DejaVuSans-30" x="63.623047"/>
      </g>
     </g>
    </g>
    <g id="xtick_4">
     <g id="line2d_4">
      <g>
       <use xlink:href="#m6b6810369b" x="180.040945" y="318.04" style="stroke: #000000; stroke-width: 0.8"/>
      </g>
     </g>
     <g id="text_4">
      <!-- 40 -->
      <g transform="translate(173.678445 332.638438)scale(0.1 -0.1)">
       <defs>
        <path id="DejaVuSans-34" d="M 2419 4116 
L 825 1625 
L 2419 1625 
L 2419 4116 
z
M 2253 4666 
L 3047 4666 
L 3047 1625 
L 3713 1625 
L 3713 1100 
L 3047 1100 
L 3047 0 
L 2419 0 
L 2419 1100 
L 313 1100 
L 313 1709 
L 2253 4666 
z
" transform="scale(0.015625)"/>
       </defs>
       <use xlink:href="#DejaVuSans-34"/>
       <use xlink:href="#DejaVuSans-30" x="63.623047"/>
      </g>
     </g>
    </g>
    <g id="xtick_5">
     <g id="line2d_5">
      <g>
       <use xlink:href="#m6b6810369b" x="220.716649" y="318.04" style="stroke: #000000; stroke-width: 0.8"/>
      </g>
     </g>
     <g id="text_5">
      <!-- 50 -->
      <g transform="translate(214.354149 332.638438)scale(0.1 -0.1)">
       <defs>
        <path id="DejaVuSans-35" d="M 691 4666 
L 3169 4666 
L 3169 4134 
L 1269 4134 
L 1269 2991 
Q 1406 3038 1543 3061 
Q 1681 3084 1819 3084 
Q 2600 3084 3056 2656 
Q 3513 2228 3513 1497 
Q 3513 744 3044 326 
Q 2575 -91 1722 -91 
Q 1428 -91 1123 -41 
Q 819 9 494 109 
L 494 744 
Q 775 591 1075 516 
Q 1375 441 1709 441 
Q 2250 441 2565 725 
Q 2881 1009 2881 1497 
Q 2881 1984 2565 2268 
Q 2250 2553 1709 2553 
Q 1456 2553 1204 2497 
Q 953 2441 691 2322 
L 691 4666 
z
" transform="scale(0.015625)"/>
       </defs>
       <use xlink:href="#DejaVuSans-35"/>
       <use xlink:href="#DejaVuSans-30" x="63.623047"/>
      </g>
     </g>
    </g>
    <g id="xtick_6">
     <g id="line2d_6">
      <g>
       <use xlink:href="#m6b6810369b" x="261.392353" y="318.04" style="stroke: #000000; stroke-width: 0.8"/>
      </g>
     </g>
     <g id="text_6">
      <!-- 60 -->
      <g transform="translate(255.029853 332.638438)scale(0.1 -0.1)">
       <defs>
        <path id="DejaVuSans-36" d="M 2113 2584 
Q 1688 2584 1439 2293 
Q 1191 2003 1191 1497 
Q 1191 994 1439 701 
Q 1688 409 2113 409 
Q 2538 409 2786 701 
Q 3034 994 3034 1497 
Q 3034 2003 2786 2293 
Q 2538 2584 2113 2584 
z
M 3366 4563 
L 3366 3988 
Q 3128 4100 2886 4159 
Q 2644 4219 2406 4219 
Q 1781 4219 1451 3797 
Q 1122 3375 1075 2522 
Q 1259 2794 1537 2939 
Q 1816 3084 2150 3084 
Q 2853 3084 3261 2657 
Q 3669 2231 3669 1497 
Q 3669 778 3244 343 
Q 2819 -91 2113 -91 
Q 1303 -91 875 529 
Q 447 1150 447 2328 
Q 447 3434 972 4092 
Q 1497 4750 2381 4750 
Q 2619 4750 2861 4703 
Q 3103 4656 3366 4563 
z
" transform="scale(0.015625)"/>
       </defs>
       <use xlink:href="#DejaVuSans-36"/>
       <use xlink:href="#DejaVuSans-30" x="63.623047"/>
      </g>
     </g>
    </g>
    <g id="xtick_7">
     <g id="line2d_7">
      <g>
       <use xlink:href="#m6b6810369b" x="302.068056" y="318.04" style="stroke: #000000; stroke-width: 0.8"/>
      </g>
     </g>
     <g id="text_7">
      <!-- 70 -->
      <g transform="translate(295.705556 332.638438)scale(0.1 -0.1)">
       <defs>
        <path id="DejaVuSans-37" d="M 525 4666 
L 3525 4666 
L 3525 4397 
L 1831 0 
L 1172 0 
L 2766 4134 
L 525 4134 
L 525 4666 
z
" transform="scale(0.015625)"/>
       </defs>
       <use xlink:href="#DejaVuSans-37"/>
       <use xlink:href="#DejaVuSans-30" x="63.623047"/>
      </g>
     </g>
    </g>
    <g id="xtick_8">
     <g id="line2d_8">
      <g>
       <use xlink:href="#m6b6810369b" x="342.74376" y="318.04" style="stroke: #000000; stroke-width: 0.8"/>
      </g>
     </g>
     <g id="text_8">
      <!-- 80 -->
      <g transform="translate(336.38126 332.638438)scale(0.1 -0.1)">
       <defs>
        <path id="DejaVuSans-38" d="M 2034 2216 
Q 1584 2216 1326 1975 
Q 1069 1734 1069 1313 
Q 1069 891 1326 650 
Q 1584 409 2034 409 
Q 2484 409 2743 651 
Q 3003 894 3003 1313 
Q 3003 1734 2745 1975 
Q 2488 2216 2034 2216 
z
M 1403 2484 
Q 997 2584 770 2862 
Q 544 3141 544 3541 
Q 544 4100 942 4425 
Q 1341 4750 2034 4750 
Q 2731 4750 3128 4425 
Q 3525 4100 3525 3541 
Q 3525 3141 3298 2862 
Q 3072 2584 2669 2484 
Q 3125 2378 3379 2068 
Q 3634 1759 3634 1313 
Q 3634 634 3220 271 
Q 2806 -91 2034 -91 
Q 1263 -91 848 271 
Q 434 634 434 1313 
Q 434 1759 690 2068 
Q 947 2378 1403 2484 
z
M 1172 3481 
Q 1172 3119 1398 2916 
Q 1625 2713 2034 2713 
Q 2441 2713 2670 2916 
Q 2900 3119 2900 3481 
Q 2900 3844 2670 4047 
Q 2441 4250 2034 4250 
Q 1625 4250 1398 4047 
Q 1172 3844 1172 3481 
z
" transform="scale(0.015625)"/>
       </defs>
       <use xlink:href="#DejaVuSans-38"/>
       <use xlink:href="#DejaVuSans-30" x="63.623047"/>
      </g>
     </g>
    </g>
    <g id="text_9">
     <!-- glandular percentage -->
     <g transform="translate(143.221362 346.316563)scale(0.1 -0.1)">
      <defs>
       <path id="DejaVuSans-67" d="M 2906 1791 
Q 2906 2416 2648 2759 
Q 2391 3103 1925 3103 
Q 1463 3103 1205 2759 
Q 947 2416 947 1791 
Q 947 1169 1205 825 
Q 1463 481 1925 481 
Q 2391 481 2648 825 
Q 2906 1169 2906 1791 
z
M 3481 434 
Q 3481 -459 3084 -895 
Q 2688 -1331 1869 -1331 
Q 1566 -1331 1297 -1286 
Q 1028 -1241 775 -1147 
L 775 -588 
Q 1028 -725 1275 -790 
Q 1522 -856 1778 -856 
Q 2344 -856 2625 -561 
Q 2906 -266 2906 331 
L 2906 616 
Q 2728 306 2450 153 
Q 2172 0 1784 0 
Q 1141 0 747 490 
Q 353 981 353 1791 
Q 353 2603 747 3093 
Q 1141 3584 1784 3584 
Q 2172 3584 2450 3431 
Q 2728 3278 2906 2969 
L 2906 3500 
L 3481 3500 
L 3481 434 
z
" transform="scale(0.015625)"/>
       <path id="DejaVuSans-6c" d="M 603 4863 
L 1178 4863 
L 1178 0 
L 603 0 
L 603 4863 
z
" transform="scale(0.015625)"/>
       <path id="DejaVuSans-61" d="M 2194 1759 
Q 1497 1759 1228 1600 
Q 959 1441 959 1056 
Q 959 750 1161 570 
Q 1363 391 1709 391 
Q 2188 391 2477 730 
Q 2766 1069 2766 1631 
L 2766 1759 
L 2194 1759 
z
M 3341 1997 
L 3341 0 
L 2766 0 
L 2766 531 
Q 2569 213 2275 61 
Q 1981 -91 1556 -91 
Q 1019 -91 701 211 
Q 384 513 384 1019 
Q 384 1609 779 1909 
Q 1175 2209 1959 2209 
L 2766 2209 
L 2766 2266 
Q 2766 2663 2505 2880 
Q 2244 3097 1772 3097 
Q 1472 3097 1187 3025 
Q 903 2953 641 2809 
L 641 3341 
Q 956 3463 1253 3523 
Q 1550 3584 1831 3584 
Q 2591 3584 2966 3190 
Q 3341 2797 3341 1997 
z
" transform="scale(0.015625)"/>
       <path id="DejaVuSans-6e" d="M 3513 2113 
L 3513 0 
L 2938 0 
L 2938 2094 
Q 2938 2591 2744 2837 
Q 2550 3084 2163 3084 
Q 1697 3084 1428 2787 
Q 1159 2491 1159 1978 
L 1159 0 
L 581 0 
L 581 3500 
L 1159 3500 
L 1159 2956 
Q 1366 3272 1645 3428 
Q 1925 3584 2291 3584 
Q 2894 3584 3203 3211 
Q 3513 2838 3513 2113 
z
" transform="scale(0.015625)"/>
       <path id="DejaVuSans-64" d="M 2906 2969 
L 2906 4863 
L 3481 4863 
L 3481 0 
L 2906 0 
L 2906 525 
Q 2725 213 2448 61 
Q 2172 -91 1784 -91 
Q 1150 -91 751 415 
Q 353 922 353 1747 
Q 353 2572 751 3078 
Q 1150 3584 1784 3584 
Q 2172 3584 2448 3432 
Q 2725 3281 2906 2969 
z
M 947 1747 
Q 947 1113 1208 752 
Q 1469 391 1925 391 
Q 2381 391 2643 752 
Q 2906 1113 2906 1747 
Q 2906 2381 2643 2742 
Q 2381 3103 1925 3103 
Q 1469 3103 1208 2742 
Q 947 2381 947 1747 
z
" transform="scale(0.015625)"/>
       <path id="DejaVuSans-75" d="M 544 1381 
L 544 3500 
L 1119 3500 
L 1119 1403 
Q 1119 906 1312 657 
Q 1506 409 1894 409 
Q 2359 409 2629 706 
Q 2900 1003 2900 1516 
L 2900 3500 
L 3475 3500 
L 3475 0 
L 2900 0 
L 2900 538 
Q 2691 219 2414 64 
Q 2138 -91 1772 -91 
Q 1169 -91 856 284 
Q 544 659 544 1381 
z
M 1991 3584 
L 1991 3584 
z
" transform="scale(0.015625)"/>
       <path id="DejaVuSans-72" d="M 2631 2963 
Q 2534 3019 2420 3045 
Q 2306 3072 2169 3072 
Q 1681 3072 1420 2755 
Q 1159 2438 1159 1844 
L 1159 0 
L 581 0 
L 581 3500 
L 1159 3500 
L 1159 2956 
Q 1341 3275 1631 3429 
Q 1922 3584 2338 3584 
Q 2397 3584 2469 3576 
Q 2541 3569 2628 3553 
L 2631 2963 
z
" transform="scale(0.015625)"/>
       <path id="DejaVuSans-20" transform="scale(0.015625)"/>
       <path id="DejaVuSans-70" d="M 1159 525 
L 1159 -1331 
L 581 -1331 
L 581 3500 
L 1159 3500 
L 1159 2969 
Q 1341 3281 1617 3432 
Q 1894 3584 2278 3584 
Q 2916 3584 3314 3078 
Q 3713 2572 3713 1747 
Q 3713 922 3314 415 
Q 2916 -91 2278 -91 
Q 1894 -91 1617 61 
Q 1341 213 1159 525 
z
M 3116 1747 
Q 3116 2381 2855 2742 
Q 2594 3103 2138 3103 
Q 1681 3103 1420 2742 
Q 1159 2381 1159 1747 
Q 1159 1113 1420 752 
Q 1681 391 2138 391 
Q 2594 391 2855 752 
Q 3116 1113 3116 1747 
z
" transform="scale(0.015625)"/>
       <path id="DejaVuSans-65" d="M 3597 1894 
L 3597 1613 
L 953 1613 
Q 991 1019 1311 708 
Q 1631 397 2203 397 
Q 2534 397 2845 478 
Q 3156 559 3463 722 
L 3463 178 
Q 3153 47 2828 -22 
Q 2503 -91 2169 -91 
Q 1331 -91 842 396 
Q 353 884 353 1716 
Q 353 2575 817 3079 
Q 1281 3584 2069 3584 
Q 2775 3584 3186 3129 
Q 3597 2675 3597 1894 
z
M 3022 2063 
Q 3016 2534 2758 2815 
Q 2500 3097 2075 3097 
Q 1594 3097 1305 2825 
Q 1016 2553 972 2059 
L 3022 2063 
z
" transform="scale(0.015625)"/>
       <path id="DejaVuSans-63" d="M 3122 3366 
L 3122 2828 
Q 2878 2963 2633 3030 
Q 2388 3097 2138 3097 
Q 1578 3097 1268 2742 
Q 959 2388 959 1747 
Q 959 1106 1268 751 
Q 1578 397 2138 397 
Q 2388 397 2633 464 
Q 2878 531 3122 666 
L 3122 134 
Q 2881 22 2623 -34 
Q 2366 -91 2075 -91 
Q 1284 -91 818 406 
Q 353 903 353 1747 
Q 353 2603 823 3093 
Q 1294 3584 2113 3584 
Q 2378 3584 2631 3529 
Q 2884 3475 3122 3366 
z
" transform="scale(0.015625)"/>
       <path id="DejaVuSans-74" d="M 1172 4494 
L 1172 3500 
L 2356 3500 
L 2356 3053 
L 1172 3053 
L 1172 1153 
Q 1172 725 1289 603 
Q 1406 481 1766 481 
L 2356 481 
L 2356 0 
L 1766 0 
Q 1100 0 847 248 
Q 594 497 594 1153 
L 594 3053 
L 172 3053 
L 172 3500 
L 594 3500 
L 594 4494 
L 1172 4494 
z
" transform="scale(0.015625)"/>
      </defs>
      <use xlink:href="#DejaVuSans-67"/>
      <use xlink:href="#DejaVuSans-6c" x="63.476562"/>
      <use xlink:href="#DejaVuSans-61" x="91.259766"/>
      <use xlink:href="#DejaVuSans-6e" x="152.539062"/>
      <use xlink:href="#DejaVuSans-64" x="215.917969"/>
      <use xlink:href="#DejaVuSans-75" x="279.394531"/>
      <use xlink:href="#DejaVuSans-6c" x="342.773438"/>
      <use xlink:href="#DejaVuSans-61" x="370.556641"/>
      <use xlink:href="#DejaVuSans-72" x="431.835938"/>
      <use xlink:href="#DejaVuSans-20" x="472.949219"/>
      <use xlink:href="#DejaVuSans-70" x="504.736328"/>
      <use xlink:href="#DejaVuSans-65" x="568.212891"/>
      <use xlink:href="#DejaVuSans-72" x="629.736328"/>
      <use xlink:href="#DejaVuSans-63" x="668.599609"/>
      <use xlink:href="#DejaVuSans-65" x="723.580078"/>
      <use xlink:href="#DejaVuSans-6e" x="785.103516"/>
      <use xlink:href="#DejaVuSans-74" x="848.482422"/>
      <use xlink:href="#DejaVuSans-61" x="887.691406"/>
      <use xlink:href="#DejaVuSans-67" x="948.970703"/>
      <use xlink:href="#DejaVuSans-65" x="1012.447266"/>
     </g>
    </g>
   </g>
   <g id="matplotlib.axis_2">
    <g id="ytick_1">
     <g id="line2d_9">
      <defs>
       <path id="m79a05c1da7" d="M 0 0 
L -3.5 0 
" style="stroke: #000000; stroke-width: 0.8"/>
      </defs>
      <g>
       <use xlink:href="#m79a05c1da7" x="44.66" y="283.007282" style="stroke: #000000; stroke-width: 0.8"/>
      </g>
     </g>
     <g id="text_10">
      <!-- 0 -->
      <g transform="translate(31.2975 286.806501)scale(0.1 -0.1)">
       <use xlink:href="#DejaVuSans-30"/>
      </g>
     </g>
    </g>
    <g id="ytick_2">
     <g id="line2d_10">
      <g>
       <use xlink:href="#m79a05c1da7" x="44.66" y="225.059239" style="stroke: #000000; stroke-width: 0.8"/>
      </g>
     </g>
     <g id="text_11">
      <!-- 20 -->
      <g transform="translate(24.935 228.858457)scale(0.1 -0.1)">
       <use xlink:href="#DejaVuSans-32"/>
       <use xlink:href="#DejaVuSans-30" x="63.623047"/>
      </g>
     </g>
    </g>
    <g id="ytick_3">
     <g id="line2d_11">
      <g>
       <use xlink:href="#m79a05c1da7" x="44.66" y="167.111195" style="stroke: #000000; stroke-width: 0.8"/>
      </g>
     </g>
     <g id="text_12">
      <!-- 40 -->
      <g transform="translate(24.935 170.910414)scale(0.1 -0.1)">
       <use xlink:href="#DejaVuSans-34"/>
       <use xlink:href="#DejaVuSans-30" x="63.623047"/>
      </g>
     </g>
    </g>
    <g id="ytick_4">
     <g id="line2d_12">
      <g>
       <use xlink:href="#m79a05c1da7" x="44.66" y="109.163152" style="stroke: #000000; stroke-width: 0.8"/>
      </g>
     </g>
     <g id="text_13">
      <!-- 60 -->
      <g transform="translate(24.935 112.96237)scale(0.1 -0.1)">
       <use xlink:href="#DejaVuSans-36"/>
       <use xlink:href="#DejaVuSans-30" x="63.623047"/>
      </g>
     </g>
    </g>
    <g id="ytick_5">
     <g id="line2d_13">
      <g>
       <use xlink:href="#m79a05c1da7" x="44.66" y="51.215108" style="stroke: #000000; stroke-width: 0.8"/>
      </g>
     </g>
     <g id="text_14">
      <!-- 80 -->
      <g transform="translate(24.935 55.014327)scale(0.1 -0.1)">
       <use xlink:href="#DejaVuSans-38"/>
       <use xlink:href="#DejaVuSans-30" x="63.623047"/>
      </g>
     </g>
    </g>
    <g id="text_15">
     <!-- mean intensities -->
     <g transform="translate(18.855313 205.97625)rotate(-90)scale(0.1 -0.1)">
      <defs>
       <path id="DejaVuSans-6d" d="M 3328 2828 
Q 3544 3216 3844 3400 
Q 4144 3584 4550 3584 
Q 5097 3584 5394 3201 
Q 5691 2819 5691 2113 
L 5691 0 
L 5113 0 
L 5113 2094 
Q 5113 2597 4934 2840 
Q 4756 3084 4391 3084 
Q 3944 3084 3684 2787 
Q 3425 2491 3425 1978 
L 3425 0 
L 2847 0 
L 2847 2094 
Q 2847 2600 2669 2842 
Q 2491 3084 2119 3084 
Q 1678 3084 1418 2786 
Q 1159 2488 1159 1978 
L 1159 0 
L 581 0 
L 581 3500 
L 1159 3500 
L 1159 2956 
Q 1356 3278 1631 3431 
Q 1906 3584 2284 3584 
Q 2666 3584 2933 3390 
Q 3200 3197 3328 2828 
z
" transform="scale(0.015625)"/>
       <path id="DejaVuSans-69" d="M 603 3500 
L 1178 3500 
L 1178 0 
L 603 0 
L 603 3500 
z
M 603 4863 
L 1178 4863 
L 1178 4134 
L 603 4134 
L 603 4863 
z
" transform="scale(0.015625)"/>
       <path id="DejaVuSans-73" d="M 2834 3397 
L 2834 2853 
Q 2591 2978 2328 3040 
Q 2066 3103 1784 3103 
Q 1356 3103 1142 2972 
Q 928 2841 928 2578 
Q 928 2378 1081 2264 
Q 1234 2150 1697 2047 
L 1894 2003 
Q 2506 1872 2764 1633 
Q 3022 1394 3022 966 
Q 3022 478 2636 193 
Q 2250 -91 1575 -91 
Q 1294 -91 989 -36 
Q 684 19 347 128 
L 347 722 
Q 666 556 975 473 
Q 1284 391 1588 391 
Q 1994 391 2212 530 
Q 2431 669 2431 922 
Q 2431 1156 2273 1281 
Q 2116 1406 1581 1522 
L 1381 1569 
Q 847 1681 609 1914 
Q 372 2147 372 2553 
Q 372 3047 722 3315 
Q 1072 3584 1716 3584 
Q 2034 3584 2315 3537 
Q 2597 3491 2834 3397 
z
" transform="scale(0.015625)"/>
      </defs>
      <use xlink:href="#DejaVuSans-6d"/>
      <use xlink:href="#DejaVuSans-65" x="97.412109"/>
      <use xlink:href="#DejaVuSans-61" x="158.935547"/>
      <use xlink:href="#DejaVuSans-6e" x="220.214844"/>
      <use xlink:href="#DejaVuSans-20" x="283.59375"/>
      <use xlink:href="#DejaVuSans-69" x="315.380859"/>
      <use xlink:href="#DejaVuSans-6e" x="343.164062"/>
      <use xlink:href="#DejaVuSans-74" x="406.542969"/>
      <use xlink:href="#DejaVuSans-65" x="445.751953"/>
      <use xlink:href="#DejaVuSans-6e" x="507.275391"/>
      <use xlink:href="#DejaVuSans-73" x="570.654297"/>
      <use xlink:href="#DejaVuSans-69" x="622.753906"/>
      <use xlink:href="#DejaVuSans-74" x="650.537109"/>
      <use xlink:href="#DejaVuSans-69" x="689.746094"/>
      <use xlink:href="#DejaVuSans-65" x="717.529297"/>
      <use xlink:href="#DejaVuSans-73" x="779.052734"/>
     </g>
    </g>
   </g>
   <g id="line2d_14">
    <path d="M 58.501942 39.756518 
L 61.298294 42.254987 
L 64.094646 44.753456 
L 66.890998 47.251925 
L 69.68735 49.750393 
L 72.483702 52.248862 
L 75.280054 54.747331 
L 78.076405 57.2458 
L 80.872757 59.744268 
L 83.669109 62.242737 
L 86.465461 64.741206 
L 89.261813 67.239675 
L 92.058165 69.738143 
L 94.854517 72.236612 
L 97.650869 74.735081 
L 100.447221 77.23355 
L 103.243573 79.732018 
L 106.039925 82.230487 
L 108.836277 84.728956 
L 111.632629 87.227425 
L 114.42898 89.725893 
L 117.225332 92.224362 
L 120.021684 94.722831 
L 122.818036 97.2213 
L 125.614388 99.719768 
L 128.41074 102.218237 
L 131.207092 104.716706 
L 134.003444 107.215175 
L 136.799796 109.713643 
L 139.596148 112.212112 
L 142.3925 114.710581 
L 145.188852 117.20905 
L 147.985203 119.707518 
L 150.781555 122.205987 
L 153.577907 124.704456 
L 156.374259 127.202925 
L 159.170611 129.701393 
L 161.966963 132.199862 
L 164.763315 134.698331 
L 167.559667 137.1968 
L 170.356019 139.695268 
L 173.152371 142.193737 
L 175.948723 144.692206 
L 178.745075 147.190675 
L 181.541427 149.689143 
L 184.337778 152.187612 
L 187.13413 154.686081 
L 189.930482 157.18455 
L 192.726834 159.683018 
L 195.523186 162.181487 
L 198.319538 164.679956 
L 201.11589 167.178425 
L 203.912242 169.676893 
L 206.708594 172.175362 
L 209.504946 174.673831 
L 212.301298 177.1723 
L 215.09765 179.670768 
L 217.894002 182.169237 
L 220.690353 184.667706 
L 223.486705 187.166175 
L 226.283057 189.664643 
L 229.079409 192.163112 
L 231.875761 194.661581 
L 234.672113 197.16005 
L 237.468465 199.658518 
L 240.264817 202.156987 
L 243.061169 204.655456 
L 245.857521 207.153925 
L 248.653873 209.652393 
L 251.450225 212.150862 
L 254.246576 214.649331 
L 257.042928 217.1478 
L 259.83928 219.646268 
L 262.635632 222.144737 
L 265.431984 224.643206 
L 268.228336 227.141675 
L 271.024688 229.640143 
L 273.82104 232.138612 
L 276.617392 234.637081 
L 279.413744 237.13555 
L 282.210096 239.634018 
L 285.006448 242.132487 
L 287.8028 244.630956 
L 290.599151 247.129425 
L 293.395503 249.627893 
L 296.191855 252.126362 
L 298.988207 254.624831 
L 301.784559 257.1233 
L 304.580911 259.621768 
L 307.377263 262.120237 
L 310.173615 264.618706 
L 312.969967 267.117175 
L 315.766319 269.615643 
L 318.562671 272.114112 
L 321.359023 274.612581 
L 324.155375 277.11105 
L 326.951726 279.609518 
L 329.748078 282.107987 
L 332.54443 284.606456 
L 335.340782 287.104925 
" clip-path="url(#p267c153dce)" style="fill: none; stroke: #1f77b4; stroke-width: 2.25; stroke-linecap: square"/>
   </g>
   <g id="patch_3">
    <path d="M 44.66 318.04 
L 44.66 10.8 
" style="fill: none; stroke: #000000; stroke-width: 0.8; stroke-linejoin: miter; stroke-linecap: square"/>
   </g>
   <g id="patch_4">
    <path d="M 44.66 318.04 
L 349.182724 318.04 
" style="fill: none; stroke: #000000; stroke-width: 0.8; stroke-linejoin: miter; stroke-linecap: square"/>
   </g>
  </g>
 </g>
 <defs>
  <clipPath id="p267c153dce">
   <rect x="44.66" y="10.8" width="304.522724" height="307.24"/>
  </clipPath>
 </defs>
</svg>
